<mxfile host="app.diagrams.net" modified="2024-05-08T06:51:27.722Z" agent="Mozilla/5.0 (Windows NT 10.0; Win64; x64) AppleWebKit/537.36 (KHTML, like Gecko) Chrome/124.0.0.0 Safari/537.36 Edg/124.0.0.0" etag="HfdlPdmpu_opgIfWsyQB" version="24.3.1" type="github">
  <diagram name="第 1 页" id="oy2bt1x4YN4_3EXfC4eU">
    <mxGraphModel dx="332" dy="192" grid="1" gridSize="10" guides="1" tooltips="1" connect="1" arrows="1" fold="1" page="1" pageScale="1" pageWidth="827" pageHeight="1169" math="0" shadow="0">
      <root>
        <mxCell id="0" />
        <mxCell id="1" parent="0" />
        <mxCell id="BU68ug_EFiQ5kWm1DNv2-2" value="" style="endArrow=classic;html=1;rounded=0;" edge="1" parent="1">
          <mxGeometry width="50" height="50" relative="1" as="geometry">
            <mxPoint x="300" y="179.66" as="sourcePoint" />
            <mxPoint x="410" y="179.66" as="targetPoint" />
          </mxGeometry>
        </mxCell>
        <mxCell id="BU68ug_EFiQ5kWm1DNv2-3" value="" style="shape=image;verticalLabelPosition=bottom;labelBackgroundColor=default;verticalAlign=top;aspect=fixed;imageAspect=0;image=data:image/png,iVBORw0KGgoAAAANSUhEUgAAAF4AAABeCAYAAACq0qNuAAAAAXNSR0IArs4c6QAAAARnQU1BAACxjwv8YQUAAAAJcEhZcwAADsMAAA7DAcdvqGQAABTiSURBVHhe7Z37b1VF18dXr7S0QKG03FHg9QWEhzdPURBQeEB9E423X0xMvCTGH/17TDQx0d80MWpivCQK3lBieBH1EeElICI3ufbGpff2WZ81Z53uvXtOT0979qk0fMu49549e2bNd9asWTN79rFiRCF3EMPQ0JAMDw9LRUWFXZ85c0bee+89uffee+Whhx6ShoYGi+c+9FVWVlrw9BNBZeZ4Bwk4iX19fUb6008/LfPmzZPXX39dDh48KIODg1nSJ6O7dzQ+B9B2Ajhw4IBcu3ZNnnzySYvr6OiQ999/X6qrq60xmpubLV1VVdUdjZ8M0D/XQY6Ym1u3bsnPP/8sjz76qGk25EL0yy+/bGbnnXfekRMnTliD8IwfPUSvk7ij8QrXbjSWAOkDAwPyxRdfyJw5c2Tnzp0xbYay/v5+uXjxorz77ruydu1a2bNnj8yePdvu0UgOniMu2SPuaHwEEEQjQNC5c+fk2LFj0tbWZvHERQNELl26VF599VWpra2V1157TY4fP25po+nJL9oQjjsar3CyHAyoDKKYmPXr11scRDsgk8GVOO8tp0+fls8++8xM0WOPPSaNjY2xgZcxgYZwlJT4nBlFIyk3UVxUmOkCFLimQ+iXX34p3d3dNni6bY9qrad30rmHecL8/PDDD+b1PPXUU7JmzRqZNWuW3YP4KFIl3nOmiFBMiHCqvTtON/muwchx9OhR+eabb+SFF14w+04cxEaJB04bR9J4IwBs//79+43whx9+WBYsWJC5M6poZSTezpT00VTE56pUuQFB4OrVq/LWW2/Jiy++KK2trRbnRCU1NgmI90YADM6//fab9Z5169bZxIvB15Ey8YFw75YmmKbyrkvc34V4zATu4erVq2X79u0mE/K6bFEbn0So5yjpnHtjYrK++uorOXXqlDz77LOyYsUKu1faGmcE0H92pPteu9Yu589f0IL/kJMnf7cjU3AmJWhFeMyfCyFtJMsjYGJu3rwpmzdvNpKJc+VwQseD5wNIT+Ca2e7jjz8uNTU1NgAb6SibpSwhhocRYFi6uq7Ln3+elUuXLlmrQzKVGBjol+vXr1s8DdDZ2WkN5D3ChU8TXg7lQgQTpX379hlB9fX1Rpp7ITRCIeLzpeOaeuNmkt/999+f7UGp9PHr12/IhQsX5MaNG1ZBBLDAzcw5RNO98ZdpCK7D7cLaVQp4Q0MMnsiGDRtk5cqV2YZHDtNMDROVyeqYSevn9CJvVDwcjy858VTk0qXLpkkuRBZ66QUDbxTIR+u49oqnBS/Dy6Fcpv0Mft74pZDBy8C+33PPPWbb3XSBkhJPQSwi9fT0WAFRkrPIVMrjXRB6CBOXMelTAErh5H799deyceNG00a37S7TVADJv//+u5nT3bt3Z/POjh+ZdJMCGVAJBCWgPZ2dXXZvQl2UhtF0dIW+/gFp7+jUfAIhnqcTVEq4PT579qwO+CflvvvuMxtMPHJz9MbxMB48jXPBOUr08ccfyxNPPGFuJOVlSdcySqLxXmi7ajsDlldsLPF6XaFumQctfmQEB5N0FTY2IDD5pQnIaW9vlw8//FCee+45G1BdZhqA8l32iTS+15+0HAnfffedbNq0SVatWmXXzke2gTPPTgoU6JpN5gySxcCF8XMGWwYjr7jfKzVQjg8++EC2bt1qC13Jcvza5ShEfFRW0l6+fNlcxx07dmR7UBJT1ngKIpimaosXA69QtOKu8WmZGYADQCNDDu5sshwnknjGq0JweQEK+Omnn8qWLVts3CDe70UxJeIRjoKA++lTBdpIRdIiHdTV1ckrr7wiixYtkrfffluOHDliDYH8lO/HK1eu2OCIW1wIPAMXv/76q53zogR+zKzYOBbHlDXetZVCiyXLNYtgA46GIRU6Gk9IA2gjLuTzzz9vLh++Ns4B6O3tNcJZu0GhCOPB5aT37N271wZUCPfgk7EoSkI8wbV9qjS5uSLPtDTf7S7TeBbDXnrpJZtdv/HGG+YCnj9/3hoBZZo7d65N+wsBOT/55BOz6y0tLZnY/Jgy8QCSqEiyVScD3MtoPmkQT/5uIjni1bD2/sgjj9jAiMaThpcZmKNcpiIJ1noYD1jr4dlCXEyJeCeFI91JS1PXMGiph/HAfXpKND0N6OdpwhuYUKllQm5r6yJpapqvZVdIV/d1W22trAweCXImZfU4Jo28fXrmmWds/ChEOiiZjbeZnwoPX1HhCIUQTVtbW5ONSw2VjClKuspbreamqqpaenr75crVDhke0Wm9Gsyauno5fuKUfL3/O+ns6taeEUimh7jdZwBGyz/66CPZtWuXLF68ODTkBHrIlIl3giCeLusEgmLJQ2Cf5U1E+CkBheGfHiG0vT2sklIuYtfWzpKly5ZJY0Oj2u5P5ccff8ySTXpXON40cc7Ko2Mi9Z6yqaFQPzIIRa8JheBCcqxTLaPxUkWGbIMWzRIFhPb29hjpEFtdXWVHFUoa1M7zwvvMmbPy5ptv2nI26cgDr+fw4cP2fhVTW4yylEytEIQ9ha6xUUJzBbSGI2ldgxobG9Rc5VtuKBU0X0TTMDQcpvnhvUCXNUCQPfQ+wLsFtm/8a/e/5IEHttlbKhbWMDHffvutLffybtbBc9EekQ9TevWXfJQrKnD27LlwnSE2KkT0mVDJ0BA02MqVK8zGJ0UuVIliQFlDSibCcg7Z+/Z9pe5jj5rLOlOe+obZUls3S2pratW9VZdStX7FimXm6jKZ+vzzz23W29TUZLvKcEuT2p4q8UlYRQaH5eLFv9RmdmQL9yP3vTgXFO1Ao5YuXRLe6utfET22aFC+9jUbJJHhyuWrqrn7VQ7kypClh1r1TsydVD//v1avMoWo0gEZ8CyrmngwvDyhDpBfjIKUnPjBISo1KBcu/GWLZsQR3E1MgkF50aJWJb1RBQ+2M1O/VGDy6HFYtR7Cjh79fzl29JjG0DMz5kXLH8z4+fWq+S3NzbJu3VpZ2By2afgcwGTVxmM8QHmKIb6gbuUiazzgpjHQoMHM4CDWtRvBvCE4p6suW7bUbDsVpyhs6kThJBaFCDkD/QNyOTtYjlIxotpfqemox0Bfv02qhjNku/12krlGqYpFQuPjldY8tXXZgsEEQwXyrpgH0awQDM3o18qx1OtTcOLxXiC7TrXJhebRTF2ylcoFDIVjWGUjbSAu/ky+HCgHbed49eq1jJkhT39Cj3qTP8zeyMiQNKumP/jgdjMn3nMpz8NkMC7xQ2o2mMVhOrDZVLuiCDtAzp47xQSBndiQT7i20wmBPCqrKqVpXpNlAenuCUWRL0ueH7KdECO2BfvkyVP6bLTh1MtSBUHjg3aL/GPTRjU1/x3Tbu/Fk0VBjWfQQTN4o+Irh5OFP0sFMCnxCk8MZooqRuwFxsYNG20AhIziiGcFskfdwm/US+HFS5RIfRL7bz1dZ7bVlfLo/z5i3g5FhMbI3cuKQcFmI/P29muBLA0cJxPoNT7zo/IecqUdL0CSenjy5+mzcuDAD/LXXxcz8aN5kih2nUCFNlxHR6eZwFzw97408gIdWGfPZkZuUVPWdMcEchkx35zKoQ1BSycWQvbhvLKSmR3r0nRV4tiLGE8/keDA3rKUe+jQj3LkCCuDvdqoQxaQlfGE4I0SBSaUjaV5G8aPWl5rS6vKzbr6qE0vBfkFc2BwZNIQiAeINbHggiavoyGafiIBMsKKIQRUmXzHjh2Xf//7iPSpBwIpkOn55yK2v7/P3i4B0iSJ9DiOLS0LicnmFw1TwbjEkzlr03RJW82bYmGlQbwhQuDDgD/l4MFDtnsAskcVZSy6urosgFxa73GMH3Pnzc3ElhYFibd9j4MDKojFWHy80uUOuQBRw+Zvf//9Afnjj7A5FPKSykJc1MwQ4hi9Xr58ufnyaSAv8RSP23Wto8OOOpbbjC6Au9MV4gjEBbMDyT09fXL4p5/k1yO/yY2bOndQzR/WNP06sHPOxqmrV65pWqqeqyE1Px18q6orZPESXuGRf/7eM1kkiOdyNNBdO3gJQOXU5lGBvxuwxW6PCcHGi5w4cVJd4O/l1KnTNg7QMEwGse3XdczimsBLkGSvgOzW1oWZGXU6dU4QHwdbHsImpSDY35D3HBg1Icj+yy+/WMDr4R4rp5ih8cAkkU2mLHd4g5Ya4xLf19crvSowAyusp1B+CghE8TID0GsZeA8d+j85d+6CfRBRSIHmNM6RhQsXWuOlQTqIEe8+L0e04ubNnsybGL35NyHd5SP4NSEOpvv6X50zYMu5fenSFTl8+Ce5dat3TPponTm2LlqUfaFTFuKBVwiyu7o66bjGe7CdyQpOHyAkF+nEu/0OxAW/nyM2PtyPV5s8AsHslqiRJUsWmzfjSxHhXmkRk4ACXAjK6tKBFSFDY1B4Oq1fDJzsrIKUCL52hO8e/TwyLYzReK8Yrhcz1lHtCGvU0w1XCkd+bXRFSYaxCAoXjrxH8C0maSJGvGuRv50J3zCJVGuXGx6ansHVtdsVgp0M85uaMsuzKhwCYg5N9nAcfSbExUMS5MtKZIX67pWyaHGrNk/6FY0RzwSpokqjlOEbN2/awEoCBKmCdZXbCfBQDnhZaOSaNatk+/YHpO2fm6RlYbM2gPrwRp4OjEPMsH3zbHjGGy0/PO2QNDWxT3KuXpXWjOVCjHgI9ta+dPGyCcyVBa001+NXIl0gQ31dvXkcq1atlh07tsmuXTtl/fp11hPMLGoa0rm8E0Xw3ZdLjS0RBA7SRIx4t+e4VXg0SXCfMB3kmxJAfMbNQ0vxQJqa5smGDffKnj27ZcuWrbI4s8kUTbf5hwF50WIPY+Vnh8OSJUvsPOSfLmLEu0ZjYrq6u7LX3l2ZlHjjcF0ueFnwUVvLuj67k1km4EOysFzAgLhy5XLZpmYIU7Rq1Uqpr6/Tp9zW65nWw8NoveyWLGxutu0axKdPew7iKZU3RWFgDVL54MNLatc27vn9tEGZwaeu1Gk82yhCI0A6Adm8MWgAtov8s61NHnxwh304zGu7wSF+nWM0P0gHflye+Q6V97laM4tLE3HiMwWyFDw0GNYzAsGcVWRnc5yHymdqkiK8DORgUhOuESh/IEmN9s7GOQ1q/9fKQzt3yKZNG2V2Q71mSBpHMF/uKVlv1tvlUKgY8XdQPsSIZ4KEBoSFpKANwI98luLnZVCKGJCH3Vr0tvHAXduCov+qq3Q8UNMxd85c+80YvrDevLnNFsDCPCB4PvPnN0kNeZexTgkbrx6Nmpju7utGMCE0QLjf0BB+6CaQXz4pKQ45bH9iAeIBac1k8Kfn/CEzppLfo8EN3bZtq9x11102ANMQVJ60TB4ZS9LGmBJ6e/vlejfbHnAbqWQIDF5oPEer2AQIKAV88INGPJrAyahcY4ImqNJA7+WYDSycEad2vK6uVpYvXyqb2/5Hdu18yLYR0gOw8dwnp7SRID78qBlv69lbgpYgTDhWmbsVurvWT+PSQzxv72G4s+E8f7A/TTMmjN4NvUEbtKam2uYB9VovGiWEUN+0MUbjh4eHzJ0MWk0PDEc0HY3zLzY8vhzwDUYT/bBrPCA3wRvE48qNGPEIELp2EATBXKhwqFAtqS27oG5usPFsraN8D5OB16vc9YgiRjwKwFt6lwfBfKYaUGHvIYNHECqQNiiDiRFgiQCPhYagVxYC8pM2GqKE+znB3z4l03lwRM+ngjHEI4DN4CKEO8FEMYmh8HKQDqIV97JBmMmOLwP3vS7FBp6NBkf0fCqIEU+dwsAaunaydbHzaDz3ESB5Pw1EKx+18dEGcXDNzjdCdJzKhWi+HsqJGPFgcNC7cG6hvfLeOGkjSjA2nvemfu3mIUowXhcyms9fZjKLQQ7i+WqDs9xawK5ZbC4LZ+NpVKmADN79WQDjbZibGeKiMnhcIfCMh+nCGCnDoJXfjFjlbXk42TDpaheE2iCrZVJudsIzAVsfBV6ReUYatJLqz4cBmBk7R+tBxOl94iyeZzTOehjPko5jhKNcfOWLI4whni3MIF9lol5NuYCgNDiTOL0KkZMEazdVKA6TMW04vCRrQFOmzMBKXCadxes5imaNrec8Z8cIR7n4SsZRDxoMxIgnnROPAEnQgNGv+HK1aKmB8JTD/CGXTLcTqAsNyTFWE7qTzxLpVkliaRim2bh1phlEpAzkoJxQZnl7WpqIEd/fP2gbVZ3wXMSychf2JaZPOnAZ6OZhULfL2x6JvhtmqoU0GXNTDjMDfDWUnoZc5So3bcSI58s83Ekql8+eco93r+UiwIsJ84fymLdyIK+Nh9h8lcTDoHeUA7h3yMEP91BmsbxTD3MXM2MWv2uJOR3KfPZZDHKlJ85DMUhoPAKG/1cGwiZB3vQEfl6kXN2ecgh8fh96YXHM8yzPub+PmWR2W5V9cT49yGFqgiYgVJJYegNRdHtPUy5g3qYbuepLnIdiMIZ475K58vHZKntb8o0BaYGvq2cScpoabGmuLh16AL89E3zqZI9IA0GbKm3RqxzllQsx4jHrEIo2565k0PgwmSmPmaG8sFxQ3h6WNmK14WOzQPj4NstnkeOlKRUY5G2NJEv8zND6hMaPvuDIpfGB56CBkF8uMJhD/gyyNHHiB9S/DVPzENAyD1xDPD85gis2VgNLycponigAjRw2GQWvaiYg9kNBN2/dktOnz9gkw6O9FyxYMN9+ntBfNu/du0+6OrvtXqL9SoiwPs5vCmx9YIs2tvrk2gDsf7ndEWMMbwXNRsM8MNnAo+CetYUGyK7VuHKhpkZ7n5ZpjXz7c26IEY+We3C4zadBAu9h4lSX9k/RZhHWhuhpoXfNDMSIp2IeQLQRTOsjLiRT73IQgW2nLEzOTMIY4jEvTrgHtJ2dttl+rm3BR1reKGkCmXy/5kxCjHhecLBX3Ml2jeaHOf0TGAe7usqlhWFlcmYhRjwazSfl/H+nIR/iIb2lhe9J4340vnx5TI3YHnY1gJmYmYEE8eEVGx9v4Trefffd9ok59p2VSX72G3cODsb68mmEAGw8ZZbDtJULMeLRLtw27Pe8eXNkTmODmR84sI1MSrR9uq6NMEvtLpMpGRnSwE+rsJxcmuD5kTc9i0GdfTAeZgKK+jVtf+MP+LU7fvmIuCjsI5KpQKWJZsGnkm1tbTbAuvmjV97eEPkP9kLRNSI9i6QAAAAASUVORK5CYII=;" vertex="1" parent="1">
          <mxGeometry x="160" y="120" width="120" height="120" as="geometry" />
        </mxCell>
        <mxCell id="BU68ug_EFiQ5kWm1DNv2-4" value="&lt;font style=&quot;font-size: 8px; font-weight: normal;&quot;&gt;Source of Stimulus&lt;/font&gt;" style="text;strokeColor=none;fillColor=none;html=1;fontSize=24;fontStyle=1;verticalAlign=middle;align=center;" vertex="1" parent="1">
          <mxGeometry x="180" y="280" width="70" height="10" as="geometry" />
        </mxCell>
      </root>
    </mxGraphModel>
  </diagram>
</mxfile>
